<?xml version="1.0" encoding="UTF-8" standalone="no"?>
<!-- Created with Inkscape (http://www.inkscape.org/) -->

<svg
   xmlns:dc="http://purl.org/dc/elements/1.1/"
   xmlns:cc="http://creativecommons.org/ns#"
   xmlns:rdf="http://www.w3.org/1999/02/22-rdf-syntax-ns#"
   xmlns:svg="http://www.w3.org/2000/svg"
   xmlns="http://www.w3.org/2000/svg"
   version="1.0"
   width="520"
   height="520"
   id="svg4145">
  <defs
     id="defs4147">
    <linearGradient
       id="linearGradient5141">
      <stop
         id="stop5143"
         style="stop-color:#00ffff;stop-opacity:1"
         offset="0" />
      <stop
         id="stop5145"
         style="stop-color:#ffffff;stop-opacity:0"
         offset="1" />
    </linearGradient>
  </defs>
  <metadata
     id="metadata4150">
    <rdf:RDF>
      <cc:Work
         rdf:about="">
        <dc:format>image/svg+xml</dc:format>
        <dc:type
           rdf:resource="http://purl.org/dc/dcmitype/StillImage" />
        <dc:title></dc:title>
      </cc:Work>
    </rdf:RDF>
  </metadata>
  <g
     id="layer1">
    <path
       d="m 346.56251,329.1875 56.875,56.875 C 433.04174,352.41046 451.03126,308.30913 451.03126,260 c 0,-48.30913 -17.98951,-92.41047 -47.59375,-126.0625 l -56.875,56.875 c 1.87065,2.33705 3.69504,4.70152 5.375,7.1875 1.99349,2.94994 3.85469,6.01376 5.5625,9.15625 1.70781,3.14249 3.284,6.37109 4.6875,9.6875 1.4035,3.31641 2.63819,6.71579 3.71875,10.1875 1.08056,3.47171 1.97975,7.01663 2.71875,10.625 0.739,3.60837 1.30869,7.27358 1.6875,11 0.37881,3.72642 0.59375,7.51792 0.59375,11.34375 0,3.82583 -0.21493,7.61733 -0.59375,11.34375 -0.37882,3.72642 -0.9485,7.39163 -1.6875,11 -0.739,3.60837 -1.63819,7.15329 -2.71875,10.625 -1.08056,3.47171 -2.31525,6.87109 -3.71875,10.1875 -1.4035,3.31641 -2.97969,6.54501 -4.6875,9.6875 -1.70781,3.14249 -3.56901,6.20631 -5.5625,9.15625 -1.67996,2.48598 -3.50435,4.85045 -5.375,7.1875 z"
       id="path6304"
       style="color:#000000;fill:#eec73e;fill-opacity:1;fill-rule:nonzero;stroke:none;stroke-width:1.92009819;marker:none;visibility:visible;display:inline;overflow:visible;enable-background:accumulate" />
    <path
       d="m 190.81251,346.5625 -56.875,56.875 c 33.65201,29.60425 77.75342,47.59375 126.0625,47.59375 48.30908,0 92.4105,-17.98949 126.0625,-47.59375 l -56.875,-56.875 c -2.33705,1.87065 -4.70152,3.69504 -7.1875,5.375 -2.94994,1.99349 -6.01376,3.85469 -9.15625,5.5625 -3.14249,1.70781 -6.37109,3.284 -9.6875,4.6875 -3.31641,1.4035 -6.71579,2.63819 -10.1875,3.71875 -3.47171,1.08056 -7.01663,1.97975 -10.625,2.71875 -3.60837,0.739 -7.27358,1.30869 -11,1.6875 -3.72642,0.37881 -7.51792,0.59375 -11.34375,0.59375 -3.82583,0 -7.61733,-0.21494 -11.34375,-0.59375 -3.72642,-0.37881 -7.39163,-0.9485 -11,-1.6875 -3.60837,-0.739 -7.15329,-1.63819 -10.625,-2.71875 -3.47171,-1.08056 -6.87109,-2.31525 -10.1875,-3.71875 -3.31641,-1.4035 -6.54501,-2.97969 -9.6875,-4.6875 -3.14249,-1.70781 -6.20631,-3.56901 -9.15625,-5.5625 -2.48598,-1.67996 -4.85045,-3.50435 -7.1875,-5.375 z"
       id="path6300"
       style="color:#000000;fill:#f0a513;fill-opacity:1;fill-rule:nonzero;stroke:none;stroke-width:1.92009819;marker:none;visibility:visible;display:inline;overflow:visible;enable-background:accumulate" />
    <path
       d="m 173.43751,190.8125 -56.875,-56.875 C 86.95826,167.58953 68.968756,211.69088 68.968757,260 c -2e-6,48.30913 17.989502,92.41048 47.593753,126.0625 l 56.875,-56.875 c -1.87065,-2.33705 -3.69504,-4.70152 -5.375,-7.1875 -1.99349,-2.94994 -3.85469,-6.01376 -5.5625,-9.15625 -1.70781,-3.14249 -3.284,-6.37109 -4.6875,-9.6875 -1.4035,-3.31641 -2.63819,-6.71579 -3.71875,-10.1875 -1.08056,-3.47171 -1.97975,-7.01663 -2.71875,-10.625 -0.739,-3.60837 -1.30869,-7.27358 -1.6875,-11 -0.37881,-3.72642 -0.59375,-7.51792 -0.59375,-11.34375 0,-3.82583 0.21494,-7.61733 0.59375,-11.34375 0.37881,-3.72642 0.9485,-7.39163 1.6875,-11 0.739,-3.60837 1.63819,-7.15329 2.71875,-10.625 1.08056,-3.47171 2.31525,-6.87109 3.71875,-10.1875 1.4035,-3.31641 2.97969,-6.54501 4.6875,-9.6875 1.70781,-3.14249 3.56901,-6.20631 5.5625,-9.15625 1.67996,-2.48598 3.50435,-4.85045 5.375,-7.1875 z"
       id="path6296"
       style="color:#000000;fill:#fb8b00;fill-opacity:1;fill-rule:nonzero;stroke:none;stroke-width:1.91999996;marker:none;visibility:visible;display:inline;overflow:visible;enable-background:accumulate" />
    <path
       d="m 260.00001,68.968754 c -48.30908,10e-7 -92.4105,17.989477 -126.0625,47.593746 l 56.875,56.875 c 2.33705,-1.87065 4.70152,-3.69504 7.1875,-5.375 2.94994,-1.99349 6.01376,-3.85469 9.15625,-5.5625 3.14249,-1.70781 6.37109,-3.284 9.6875,-4.6875 3.31641,-1.4035 6.71579,-2.63819 10.1875,-3.71875 3.47171,-1.08056 7.01663,-1.97975 10.625,-2.71875 3.60837,-0.739 7.27358,-1.30869 11,-1.6875 3.72642,-0.37881 7.51792,-0.59375 11.34375,-0.59375 3.82583,0 7.61733,0.21494 11.34375,0.59375 3.72642,0.37881 7.39163,0.9485 11,1.6875 3.60837,0.739 7.15329,1.63819 10.625,2.71875 3.47171,1.08056 6.87109,2.31525 10.1875,3.71875 3.31641,1.4035 6.54501,2.97969 9.6875,4.6875 3.14249,1.70781 6.20631,3.56901 9.15625,5.5625 2.48598,1.67996 4.85045,3.50435 7.1875,5.375 l 56.875,-56.875 C 352.41052,86.958229 308.3091,68.968754 260.00001,68.968754 z"
       id="path6258"
       style="color:#000000;fill:#f44800;fill-opacity:1;fill-rule:nonzero;stroke:none;stroke-width:1.92009819;marker:none;visibility:visible;display:inline;overflow:visible;enable-background:accumulate" />
    <path
       d="m 357.5873,506.582 a 92.10582,89.396828 0 1 1 -184.21164,0 92.10582,89.396828 0 1 1 184.21164,0 z"
       transform="matrix(0.6948529,0,0,0.7159091,75.52943,89.333337)"
       id="path6269"
       style="color:#000000;fill:#f44800;fill-opacity:1;fill-rule:nonzero;stroke:none;stroke-width:2;marker:none;visibility:visible;display:inline;overflow:visible;enable-background:accumulate" />
    <path
       d="m 357.5873,506.582 a 92.10582,89.396828 0 1 1 -184.21164,0 92.10582,89.396828 0 1 1 184.21164,0 z"
       transform="matrix(0.6948529,0,0,0.7159091,267.52943,-102.66667)"
       id="path6271"
       style="color:#000000;fill:#fb8b00;fill-opacity:1;fill-rule:nonzero;stroke:none;stroke-width:1.99967182;marker:none;visibility:visible;display:inline;overflow:visible;enable-background:accumulate" />
    <path
       d="m 357.5873,506.582 a 92.10582,89.396828 0 1 1 -184.21164,0 92.10582,89.396828 0 1 1 184.21164,0 z"
       transform="matrix(0.6948529,0,0,0.7159091,75.52943,-294.66667)"
       id="path6273"
       style="color:#000000;fill:#fdca01;fill-opacity:1;fill-rule:nonzero;stroke:none;stroke-width:2;marker:none;visibility:visible;display:inline;overflow:visible;enable-background:accumulate" />
    <path
       d="m 357.5873,506.582 a 92.10582,89.396828 0 1 1 -184.21164,0 92.10582,89.396828 0 1 1 184.21164,0 z"
       transform="matrix(0.6948529,0,0,0.7159091,-116.47057,-102.66667)"
       id="path6275"
       style="color:#000000;fill:#fd3301;fill-opacity:1;fill-rule:nonzero;stroke:none;stroke-width:2;marker:none;visibility:visible;display:inline;overflow:visible;enable-background:accumulate" />
  </g>
</svg>
